<?xml version="1.0" encoding="iso-8859-1"?>
<!-- Generator: Adobe Illustrator 19.0.0, SVG Export Plug-In . SVG Version: 6.00 Build 0)  -->
<svg version="1.1" id="Layer_1" xmlns="http://www.w3.org/2000/svg" xmlns:xlink="http://www.w3.org/1999/xlink" x="0px" y="0px"
	 viewBox="0 0 387.288 387.288" style="enable-background:new 0 0 387.288 387.288;" xml:space="preserve">
<g>
	<circle style="fill:#a3be8c;" cx="232.665" cy="90.371" r="10.91"/>
	<circle style="fill:#ebcb8b;" cx="193.643" cy="193.644" r="83.757"/>
	<circle style="fill:#88c0d0;" cx="193.643" cy="193.644" r="68.643"/>
	<path style="fill:#2e3440;" d="M193.644,387.287C86.868,387.287,0,300.419,0,193.644S86.868,0.001,193.644,0.001
		c50.982,0,99.141,19.722,135.607,55.534c1.97,1.935,1.999,5.101,0.064,7.071s-5.099,2-7.071,0.064
		c-34.584-33.964-80.256-52.669-128.6-52.669C92.382,10.001,10,92.383,10,193.644s82.382,183.644,183.644,183.644
		s183.643-82.382,183.643-183.644c0-33.366-9.079-66.058-26.255-94.542c-1.426-2.365-0.665-5.438,1.7-6.864
		c2.365-1.427,5.438-0.665,6.864,1.7c18.116,30.043,27.692,64.521,27.692,99.707C387.287,300.419,300.419,387.287,193.644,387.287z"
		/>
	<path style="fill:#2e3440;" d="M306.004,295.854c-1.161,0-2.326-0.401-3.272-1.221c-2.087-1.808-2.313-4.966-0.505-7.053
		c22.608-26.098,35.06-59.458,35.06-93.936c0-79.205-64.438-143.643-143.643-143.643c-34.569,0-67.996,12.509-94.124,35.222
		c-2.084,1.811-5.242,1.591-7.054-0.493c-1.812-2.084-1.591-5.242,0.493-7.054c27.948-24.295,63.705-37.675,100.685-37.675
		c84.719,0,153.643,68.924,153.643,153.643c0,36.883-13.318,72.569-37.501,100.484C308.797,295.268,307.404,295.854,306.004,295.854
		z"/>
	<path style="fill:#2e3440;" d="M193.644,347.287C108.924,347.287,40,278.362,40,193.644c0-27.792,7.534-55.042,21.787-78.803
		c1.42-2.369,4.491-3.137,6.859-1.716c2.368,1.42,3.136,4.492,1.716,6.859C57.041,142.193,50,167.663,50,193.644
		c0,79.206,64.438,143.644,143.644,143.644c35.458,0,69.531-13.081,95.946-36.833c2.053-1.846,5.214-1.679,7.061,0.375
		c1.847,2.053,1.679,5.215-0.375,7.061C268.022,333.296,231.574,347.287,193.644,347.287z"/>
	<path style="fill:#2e3440;" d="M103.858,259.747c-1.597,0-3.166-0.763-4.134-2.181C86.82,238.665,80,216.562,80,193.644
		c0-62.663,50.98-113.643,113.644-113.643c8.542,0,17.061,0.957,25.321,2.844c2.692,0.615,4.376,3.296,3.761,5.988
		c-0.614,2.692-3.296,4.376-5.988,3.761c-7.531-1.721-15.301-2.593-23.094-2.593C136.494,90.001,90,136.495,90,193.644
		c0,20.897,6.218,41.052,17.983,58.284c1.557,2.281,0.97,5.392-1.31,6.949C105.811,259.466,104.829,259.747,103.858,259.747z"/>
	<path style="fill:#2e3440;" d="M193.644,307.287c-32.385,0-63.341-13.926-84.931-38.208c-1.834-2.063-1.649-5.224,0.415-7.059
		c2.064-1.834,5.224-1.649,7.059,0.415c19.694,22.149,47.926,34.853,77.457,34.853c26.755,0,52.168-10.206,71.558-28.738
		c19.327-18.472,30.678-43.273,31.963-69.837c0.133-2.758,2.465-4.892,5.236-4.752c2.758,0.133,4.886,2.478,4.752,5.236
		c-1.409,29.135-13.854,56.333-35.042,76.583C250.852,296.097,222.985,307.287,193.644,307.287z"/>
	<path style="fill:#2e3440;" d="M301.797,188.348c-2.55,0-4.728-1.941-4.972-4.53c-3.269-34.618-23.624-65.133-54.449-81.627
		c-2.435-1.303-3.353-4.333-2.05-6.768c1.304-2.435,4.333-3.352,6.768-2.05c33.789,18.081,56.102,51.541,59.687,89.504
		c0.259,2.75-1.759,5.188-4.508,5.448C302.113,188.34,301.954,188.348,301.797,188.348z"/>
	<path style="fill:#2e3440;" d="M193.644,267.286c-40.607,0-73.644-33.036-73.644-73.643s33.036-73.643,73.644-73.643
		c40.607,0,73.643,33.036,73.643,73.644C267.287,234.251,234.25,267.286,193.644,267.286z M193.644,130.001
		c-35.094,0-63.644,28.55-63.644,63.643s28.55,63.643,63.644,63.643c35.093,0,63.643-28.55,63.643-63.643
		S228.736,130.001,193.644,130.001z"/>
	<path style="fill:#2e3440;" d="M239.222,268.927c-1.637,0-3.24-0.802-4.198-2.276c-1.504-2.315-0.847-5.412,1.469-6.917
		c22.483-14.608,35.907-39.315,35.907-66.091c0-9.442-1.652-18.674-4.911-27.44c-0.962-2.588,0.356-5.467,2.944-6.429
		c2.587-0.96,5.466,0.355,6.429,2.944c3.674,9.884,5.538,20.289,5.538,30.924c0,30.174-15.125,58.016-40.458,74.477
		C241.1,268.667,240.156,268.927,239.222,268.927z"/>
	<path style="fill:#2e3440;" d="M193.644,282.399c-32.259,0-62.023-17.543-77.678-45.784c-1.339-2.416-0.466-5.458,1.949-6.797
		c2.414-1.338,5.458-0.466,6.797,1.949c13.893,25.063,40.306,40.632,68.932,40.632c9.529,0,18.84-1.682,27.675-4.999
		c2.585-0.97,5.468,0.339,6.438,2.924c0.97,2.585-0.338,5.468-2.924,6.438C214.871,280.503,204.377,282.399,193.644,282.399z"/>
	<path style="fill:#2e3440;" d="M112.612,219.93c-2.219,0-4.245-1.488-4.833-3.734c-1.919-7.326-2.892-14.914-2.892-22.552
		c0-36.646,23.013-70.004,57.264-83.005c2.583-0.981,5.469,0.318,6.449,2.9c0.98,2.582-0.318,5.469-2.9,6.449
		c-30.393,11.538-50.813,41.138-50.813,73.657c0,6.784,0.863,13.52,2.565,20.018c0.7,2.671-0.899,5.404-3.57,6.104
		C113.458,219.877,113.031,219.93,112.612,219.93z"/>
	<path style="fill:#2e3440;" d="M183.68,115.474c-2.499,0-4.658-1.87-4.959-4.413c-0.325-2.742,1.635-5.229,4.377-5.553
		c3.477-0.412,7.025-0.621,10.545-0.621c2.761,0,5,2.239,5,5s-2.239,5-5,5c-3.129,0-6.281,0.186-9.37,0.551
		C184.074,115.462,183.876,115.474,183.68,115.474z"/>
	<path style="fill:#2e3440;" d="M260.938,148.765c-1.528,0-3.037-0.698-4.019-2.02c-10.946-14.744-26.739-25.255-44.467-29.599
		c-2.682-0.657-4.324-3.364-3.667-6.046s3.365-4.321,6.046-3.667c19.986,4.896,37.784,16.74,50.117,33.351
		c1.646,2.217,1.183,5.349-1.034,6.995C263.019,148.443,261.974,148.765,260.938,148.765z"/>
	<circle style="fill:#bf616a;" cx="327.76" cy="61.121" r="24.553"/>
	<circle style="fill:#ebcb8b;" cx="72.463" cy="107.65" r="16.588"/>
	<circle style="fill:#5e81ac;" cx="316.77" cy="336.45" r="26.21"/>
	<path style="opacity:0.25;enable-background:new    ;" d="M342.98,336.453c0,14.47-11.74,26.21-26.21,26.21
		c-11.52,0-21.3-7.43-24.8-17.75c2.65,0.92,5.5,1.41,8.46,1.41c14.48,0,26.21-11.73,26.21-26.21c0-2.96-0.49-5.81-1.41-8.46
		C335.55,315.162,342.98,324.932,342.98,336.453z"/>
	<path style="opacity:0.25;enable-background:new    ;" d="M330.64,36.568c11.965,0,21.673,9.708,21.673,21.673
		c0,9.526-6.144,17.613-14.678,20.507c0.761-2.191,1.166-4.548,1.166-6.996c0-11.974-9.7-21.673-21.673-21.673
		c-2.448,0-4.804,0.405-6.996,1.166C313.035,42.712,321.114,36.568,330.64,36.568z"/>
	<path style="opacity:0.25;enable-background:new    ;" d="M55.875,107.255c0-8.94,7.253-16.193,16.193-16.193
		c7.117,0,13.159,4.59,15.321,10.966c-1.637-0.568-3.398-0.871-5.227-0.871c-8.946,0-16.193,7.247-16.193,16.193
		c0,1.829,0.303,3.589,0.871,5.227C60.465,120.408,55.875,114.372,55.875,107.255z"/>
	<path style="fill:#2e3440;" d="M72.463,129.238c-11.904,0-21.588-9.684-21.588-21.587c0-11.904,9.684-21.588,21.588-21.588
		s21.588,9.684,21.588,21.588C94.051,119.554,84.367,129.238,72.463,129.238z M72.463,96.063c-6.39,0-11.588,5.198-11.588,11.588
		c0,6.389,5.198,11.587,11.588,11.587s11.588-5.198,11.588-11.587C84.051,101.261,78.853,96.063,72.463,96.063z"/>
	<path style="fill:#2e3440;" d="M232.665,106.281c-8.773,0-15.911-7.137-15.911-15.91s7.138-15.911,15.911-15.911
		s15.911,7.138,15.911,15.911S241.438,106.281,232.665,106.281z M232.665,84.46c-3.259,0-5.911,2.651-5.911,5.911
		c0,3.259,2.651,5.91,5.911,5.91s5.911-2.651,5.911-5.91C238.575,87.111,235.924,84.46,232.665,84.46z"/>
	<path style="fill:#2e3440;" d="M316.77,367.659c-17.209,0-31.21-14-31.21-31.21c0-17.21,14.001-31.21,31.21-31.21
		s31.21,14,31.21,31.21C347.98,353.659,333.979,367.659,316.77,367.659z M316.77,315.24c-11.695,0-21.21,9.515-21.21,21.21
		c0,11.695,9.515,21.21,21.21,21.21s21.21-9.515,21.21-21.21C337.98,324.755,328.465,315.24,316.77,315.24z"/>
	<path style="fill:#2e3440;" d="M327.76,90.674c-16.296,0-29.553-13.257-29.553-29.553s13.257-29.553,29.553-29.553
		c16.295,0,29.553,13.257,29.553,29.553C357.313,77.417,344.056,90.674,327.76,90.674z M327.76,41.568
		c-10.782,0-19.553,8.771-19.553,19.553c0,10.781,8.771,19.553,19.553,19.553c10.781,0,19.553-8.771,19.553-19.553
		C347.313,50.339,338.542,41.568,327.76,41.568z"/>
</g>
<g>
</g>
<g>
</g>
<g>
</g>
<g>
</g>
<g>
</g>
<g>
</g>
<g>
</g>
<g>
</g>
<g>
</g>
<g>
</g>
<g>
</g>
<g>
</g>
<g>
</g>
<g>
</g>
<g>
</g>
</svg>
